<svg xmlns="http://www.w3.org/2000/svg" width="200" height="220" viewBox="0 0 200 220"><g id="leaves"><path fill="#7EC850" stroke="#7EC850" stroke-width=".5" d="M 85 15 Q 80 10 85 5 Q 90 10 85 15 M 86 10 L 89 8"/><path fill="#8BC34A" stroke="#8BC34A" stroke-width=".5" d="M 100 8 Q 95 3 100 -2 Q 105 3 100 8 M 101 3 L 104 1"/><path fill="#7EC850" stroke="#7EC850" stroke-width=".5" d="M 115 12 Q 110 7 115 2 Q 120 7 115 12 M 116 7 L 119 5"/><path fill="#8BC34A" stroke="#8BC34A" stroke-width=".5" d="M 60 25 Q 55 20 60 15 Q 65 20 60 25 M 61 20 L 64 18"/><path fill="#7EC850" stroke="#7EC850" stroke-width=".5" d="M 78 22 Q 73 17 78 12 Q 83 17 78 22 M 79 17 L 82 15"/><path fill="#8BC34A" stroke="#8BC34A" stroke-width=".5" d="M 95 18 Q 90 13 95 8 Q 100 13 95 18 M 96 13 L 99 11"/><path fill="#7EC850" stroke="#7EC850" stroke-width=".5" d="M 112 20 Q 107 15 112 10 Q 117 15 112 20 M 113 15 L 116 13"/><path fill="#8BC34A" stroke="#8BC34A" stroke-width=".5" d="M 128 24 Q 123 19 128 14 Q 133 19 128 24 M 129 19 L 132 17"/><path fill="#7EC850" stroke="#7EC850" stroke-width=".5" d="M 142 28 Q 137 23 142 18 Q 147 23 142 28 M 143 23 L 146 21"/><path fill="#7EC850" stroke="#7EC850" stroke-width=".5" d="M 45 40 Q 40 35 45 30 Q 50 35 45 40 M 46 35 L 49 33"/><path fill="#8BC34A" stroke="#8BC34A" stroke-width=".5" d="M 65 38 Q 60 33 65 28 Q 70 33 65 38 M 66 33 L 69 31"/><path fill="#7EC850" stroke="#7EC850" stroke-width=".5" d="M 82 35 Q 77 30 82 25 Q 87 30 82 35 M 83 30 L 86 28"/><path fill="#8BC34A" stroke="#8BC34A" stroke-width=".5" d="M 100 32 Q 95 27 100 22 Q 105 27 100 32 M 101 27 L 104 25"/><path fill="#7EC850" stroke="#7EC850" stroke-width=".5" d="M 118 34 Q 113 29 118 24 Q 123 29 118 34 M 119 29 L 122 27"/><path fill="#8BC34A" stroke="#8BC34A" stroke-width=".5" d="M 135 39 Q 130 34 135 29 Q 140 34 135 39 M 136 34 L 139 32"/><path fill="#7EC850" stroke="#7EC850" stroke-width=".5" d="M 155 42 Q 150 37 155 32 Q 160 37 155 42 M 156 37 L 159 35"/><path fill="#8BC34A" stroke="#8BC34A" stroke-width=".5" d="M 35 58 Q 30 53 35 48 Q 40 53 35 58 M 36 53 L 39 51"/><path fill="#7EC850" stroke="#7EC850" stroke-width=".5" d="M 52 55 Q 47 50 52 45 Q 57 50 52 55 M 53 50 L 56 48"/><path fill="#8BC34A" stroke="#8BC34A" stroke-width=".5" d="M 70 52 Q 65 47 70 42 Q 75 47 70 52 M 71 47 L 74 45"/><path fill="#7EC850" stroke="#7EC850" stroke-width=".5" d="M 88 50 Q 83 45 88 40 Q 93 45 88 50 M 89 45 L 92 43"/><path fill="#8BC34A" stroke="#8BC34A" stroke-width=".5" d="M 112 50 Q 107 45 112 40 Q 117 45 112 50 M 113 45 L 116 43"/><path fill="#7EC850" stroke="#7EC850" stroke-width=".5" d="M 130 52 Q 125 47 130 42 Q 135 47 130 52 M 131 47 L 134 45"/><path fill="#8BC34A" stroke="#8BC34A" stroke-width=".5" d="M 148 56 Q 143 51 148 46 Q 153 51 148 56 M 149 51 L 152 49"/><path fill="#7EC850" stroke="#7EC850" stroke-width=".5" d="M 165 60 Q 160 55 165 50 Q 170 55 165 60 M 166 55 L 169 53"/><path fill="#7EC850" stroke="#7EC850" stroke-width=".5" d="M 25 75 Q 20 70 25 65 Q 30 70 25 75 M 26 70 L 29 68"/><path fill="#8BC34A" stroke="#8BC34A" stroke-width=".5" d="M 42 72 Q 37 67 42 62 Q 47 67 42 72 M 43 67 L 46 65"/><path fill="#7EC850" stroke="#7EC850" stroke-width=".5" d="M 60 70 Q 55 65 60 60 Q 65 65 60 70 M 61 65 L 64 63"/><path fill="#8BC34A" stroke="#8BC34A" stroke-width=".5" d="M 78 68 Q 73 63 78 58 Q 83 63 78 68 M 79 63 L 82 61"/><path fill="#7EC850" stroke="#7EC850" stroke-width=".5" d="M 122 68 Q 117 63 122 58 Q 127 63 122 68 M 123 63 L 126 61"/><path fill="#8BC34A" stroke="#8BC34A" stroke-width=".5" d="M 140 70 Q 135 65 140 60 Q 145 65 140 70 M 141 65 L 144 63"/><path fill="#7EC850" stroke="#7EC850" stroke-width=".5" d="M 158 73 Q 153 68 158 63 Q 163 68 158 73 M 159 68 L 162 66"/><path fill="#8BC34A" stroke="#8BC34A" stroke-width=".5" d="M 175 78 Q 170 73 175 68 Q 180 73 175 78 M 176 73 L 179 71"/></g><g id="family" fill="#047857"><circle cx="65" cy="130" r="14"/><path fill="#047857" d="M 50 145 L 65 155 L 65 145 Z"/><path d="M 65 145 L 52 195 L 58 195 L 65 165 L 72 195 L 78 195 Z"/><circle cx="135" cy="130" r="14"/><path fill="#047857" d="M 135 145 L 150 145 L 135 155 Z"/><path d="M 135 145 L 122 195 L 128 195 L 135 165 L 142 195 L 148 195 Z"/><circle cx="100" cy="155" r="11"/><ellipse cx="100" cy="155" fill="#fff" opacity=".3" rx="11" ry="11"/><path d="M 100 166 L 88 208 L 93 208 L 100 178 L 107 208 L 112 208 Z"/><path fill="none" stroke="#047857" stroke-linecap="round" stroke-width="6" d="M 65 145 L 60 120 L 55 115"/><path fill="none" stroke="#047857" stroke-linecap="round" stroke-width="6" d="M 65 145 L 75 120 L 82 115"/><path fill="none" stroke="#047857" stroke-linecap="round" stroke-width="6" d="M 135 145 L 125 120 L 118 115"/><path fill="none" stroke="#047857" stroke-linecap="round" stroke-width="6" d="M 135 145 L 145 120 L 150 115"/><path fill="none" stroke="#047857" stroke-linecap="round" stroke-width="5" d="M 100 166 L 95 145 L 90 135"/><path fill="none" stroke="#047857" stroke-linecap="round" stroke-width="5" d="M 100 166 L 105 145 L 110 135"/></g></svg>